<svg width="47" height="37" viewBox="0 0 47 37" fill="none" xmlns="http://www.w3.org/2000/svg">
<path d="M39.1684 0.0681763H6.91207C5.07888 0.0681763 3.32076 0.796396 2.0245 2.09264C0.728234 3.38888 0 5.14695 0 6.98011V30.0199C0 31.8531 0.728234 33.6111 2.0245 34.9074C3.32076 36.2036 5.07888 36.9318 6.91207 36.9318H39.1684C41.0016 36.9318 42.7597 36.2036 44.056 34.9074C45.3522 33.6111 46.0805 31.8531 46.0805 30.0199V6.98011C46.0805 5.14695 45.3522 3.38888 44.056 2.09264C42.7597 0.796396 41.0016 0.0681763 39.1684 0.0681763ZM37.6247 4.67614L23.0402 15.62L8.45577 4.67614H37.6247ZM39.1684 32.3239H6.91207C6.301 32.3239 5.71497 32.0812 5.28288 31.6491C4.85079 31.217 4.60805 30.631 4.60805 30.0199V7.55611L21.6578 20.3432C22.0566 20.6423 22.5417 20.804 23.0402 20.804C23.5388 20.804 24.0238 20.6423 24.4226 20.3432L41.4724 7.55611V30.0199C41.4724 30.631 41.2297 31.217 40.7976 31.6491C40.3655 32.0812 39.7795 32.3239 39.1684 32.3239Z" fill="white"/>
</svg>
