<svg width="76" height="76" viewBox="0 0 76 76" fill="none" xmlns="http://www.w3.org/2000/svg">
<path d="M41.9065 0.00467535C44.6794 -0.00596515 47.4523 0.0219036 50.2243 0.088273L50.9615 0.114872C51.8127 0.145271 52.6524 0.18327 53.667 0.228868C57.71 0.418862 60.4686 1.05724 62.8891 1.99581C65.397 2.96098 67.5097 4.26814 69.6224 6.38087C71.5541 8.27932 73.0492 10.5757 74.0036 13.1105C74.9421 15.531 75.5805 18.2935 75.7705 22.3366C75.8161 23.3473 75.8541 24.1909 75.8845 25.0421L75.9073 25.7793C75.9748 28.5501 76.0039 31.3217 75.9947 34.0934L75.9985 36.9281V41.9059C76.0078 44.6789 75.9787 47.4518 75.9111 50.2239L75.8883 50.9611C75.8579 51.8122 75.8199 52.652 75.7743 53.6666C75.5843 57.7096 74.9383 60.4684 74.0036 62.8889C73.0523 65.4263 71.5569 67.7246 69.6224 69.6223C67.7223 71.5538 65.4248 73.0488 62.8891 74.0035C60.4686 74.9421 57.71 75.5805 53.667 75.7705C52.6524 75.8161 51.8127 75.8541 50.9615 75.8845L50.2243 75.9073C47.4523 75.9748 44.6794 76.004 41.9065 75.9947L39.0719 75.9985H34.0979C31.3251 76.0078 28.5522 75.9787 25.7801 75.9111L25.043 75.8883C24.1409 75.8556 23.2391 75.8176 22.3375 75.7743C18.2945 75.5843 15.5358 74.9383 13.1115 74.0035C10.5759 73.0511 8.27909 71.5557 6.38208 69.6223C4.44815 67.7234 2.9517 65.4255 1.99709 62.8889C1.05854 60.4684 0.420172 57.7096 0.230181 53.6666C0.187862 52.7649 0.149864 51.8631 0.116187 50.9611L0.0971882 50.2239C0.0271333 47.4518 -0.00453526 44.6789 0.0021925 41.9059V34.0934C-0.00841266 31.3218 0.0194556 28.5501 0.0857887 25.7793L0.112387 25.0421C0.142786 24.1909 0.180784 23.3473 0.226382 22.3366C0.416372 18.2897 1.05474 15.5348 1.99329 13.1105C2.94846 10.5745 4.44784 8.2787 6.38588 6.38467C8.28158 4.44959 10.5769 2.95176 13.1115 1.99581C15.5358 1.05724 18.2907 0.418862 22.3375 0.228868L25.043 0.114872L25.7801 0.0958731C28.5509 0.025852 31.3225 -0.00581705 34.0941 0.00087575L41.9065 0.00467535ZM38.0003 19.0041C35.483 18.9685 32.9837 19.4336 30.6476 20.3723C28.3116 21.311 26.1854 22.7047 24.3926 24.4723C22.5999 26.2399 21.1763 28.3462 20.2046 30.6688C19.233 32.9914 18.7326 35.4839 18.7326 38.0016C18.7326 40.5192 19.233 43.0118 20.2046 45.3343C21.1763 47.6569 22.5999 49.7632 24.3926 51.5308C26.1854 53.2985 28.3116 54.6921 30.6476 55.6309C32.9837 56.5696 35.483 57.0347 38.0003 56.9991C43.0392 56.9991 47.8717 54.9974 51.4347 51.4343C54.9977 47.8712 56.9994 43.0386 56.9994 37.9997C56.9994 32.9607 54.9977 28.1281 51.4347 24.5651C47.8717 21.002 43.0392 19.0041 38.0003 19.0041ZM38.0003 26.6038C39.5146 26.5759 41.0192 26.8501 42.4263 27.4102C43.8335 27.9703 45.1149 28.8053 46.1957 29.8662C47.2765 30.9271 48.1351 32.1928 48.7213 33.5893C49.3075 34.9858 49.6095 36.4851 49.6098 37.9996C49.61 39.5142 49.3085 41.0136 48.7228 42.4103C48.137 43.8069 47.2789 45.0729 46.1984 46.1342C45.1179 47.1955 43.8368 48.0309 42.4299 48.5915C41.0229 49.1521 39.5184 49.4267 38.0041 49.3993C34.9808 49.3993 32.0813 48.1983 29.9435 46.0604C27.8057 43.9226 26.6047 41.023 26.6047 37.9997C26.6047 34.9763 27.8057 32.0768 29.9435 29.9389C32.0813 27.8011 34.9808 26.6 38.0041 26.6L38.0003 26.6038ZM57.9493 13.3043C56.7235 13.3533 55.5642 13.8748 54.7142 14.7595C53.8642 15.6442 53.3895 16.8235 53.3895 18.0503C53.3895 19.2772 53.8642 20.4564 54.7142 21.3411C55.5642 22.2258 56.7235 22.7473 57.9493 22.7964C59.2091 22.7964 60.4172 22.2959 61.3079 21.4052C62.1987 20.5144 62.6991 19.3062 62.6991 18.0465C62.6991 16.7868 62.1987 15.5786 61.3079 14.6879C60.4172 13.7971 59.2091 13.2967 57.9493 13.2967V13.3043Z" fill="white"/>
</svg>
