<svg width="625" height="104" viewBox="0 0 625 104" fill="none" xmlns="http://www.w3.org/2000/svg">
<path d="M15.95 74V25.7H45.98V31.58H22.39V46.49H43.53V52.37H22.39V68.12H47.03V74H15.95ZM80.7771 57.48L62.9271 38.93V74H56.4871V25H56.6271L80.7771 48.94L104.927 25H105.067V74H98.6271V38.93L80.7771 57.48ZM116.985 74V25.7H123.425V74H116.985ZM134.675 74V25.7H141.115V68.12H164.215V74H134.675ZM186.053 74V55.03L169.463 25.7H176.463L189.273 49.01L202.083 25.7H209.083L192.493 55.03V74H186.053ZM273.164 74H266.584L261.614 62.66H241.384L236.414 74H229.834L251.394 25H251.604L273.164 74ZM243.974 56.85H259.094L251.534 39.63L243.974 56.85ZM322.123 74.7L288.103 40.61V74H281.663V25L315.683 59.51V25.7H322.123V74.7ZM334.026 74V25.7H350.266C351.946 25.7 353.556 25.8167 355.096 26.05C356.636 26.2833 358.106 26.61 359.506 27.03C360.953 27.45 362.306 27.9867 363.566 28.64C364.826 29.2933 365.993 30.04 367.066 30.88C368.186 31.6733 369.19 32.5833 370.076 33.61C371.01 34.6367 371.826 35.7567 372.526 36.97C373.273 38.1367 373.88 39.3967 374.346 40.75C374.86 42.1033 375.233 43.55 375.466 45.09C375.746 46.5833 375.886 48.17 375.886 49.85C375.886 51.53 375.746 53.14 375.466 54.68C375.233 56.1733 374.86 57.5967 374.346 58.95C373.88 60.3033 373.273 61.5867 372.526 62.8C371.826 64.0133 371.01 65.1333 370.076 66.16C369.19 67.14 368.186 68.05 367.066 68.89C365.993 69.73 364.826 70.4767 363.566 71.13C362.306 71.7367 360.953 72.2733 359.506 72.74C358.106 73.16 356.636 73.4867 355.096 73.72C353.556 73.9067 351.946 74 350.266 74H334.026ZM348.866 31.58H340.466V68.12H348.866C350.453 68.12 351.9 68.05 353.206 67.91C354.56 67.7233 355.82 67.4667 356.986 67.14C358.153 66.8133 359.203 66.44 360.136 66.02C361.116 65.5533 361.98 65.04 362.726 64.48C363.52 63.92 364.22 63.3133 364.826 62.66C365.48 61.96 366.04 61.2367 366.506 60.49C366.973 59.6967 367.37 58.88 367.696 58.04C368.023 57.2 368.28 56.3367 368.466 55.45C368.7 54.5633 368.863 53.6533 368.956 52.72C369.05 51.7867 369.096 50.83 369.096 49.85C369.096 48.87 369.05 47.9133 368.956 46.98C368.863 46 368.7 45.0667 368.466 44.18C368.28 43.2467 368.023 42.3833 367.696 41.59C367.37 40.75 366.973 39.9567 366.506 39.21C366.04 38.4167 365.48 37.6933 364.826 37.04C364.22 36.34 363.52 35.71 362.726 35.15C361.98 34.59 361.116 34.1 360.136 33.68C359.203 33.2133 358.153 32.84 356.986 32.56C355.82 32.2333 354.56 32 353.206 31.86C351.9 31.6733 350.453 31.58 348.866 31.58ZM384.612 74V25.7H414.642V31.58H391.052V46.49H412.192V52.37H391.052V68.12H415.692V74H384.612ZM425.149 74V25.7H444.119C448.833 25.7 452.566 26.7733 455.319 28.92C458.073 31.0667 459.449 34.4033 459.449 38.93C459.449 39.35 459.426 39.7933 459.379 40.26C459.333 40.68 459.263 41.1467 459.169 41.66C459.123 42.1733 459.029 42.71 458.889 43.27C458.749 43.7833 458.563 44.2967 458.329 44.81C458.143 45.3233 457.909 45.86 457.629 46.42C457.349 46.9333 457.023 47.4467 456.649 47.96C456.276 48.4267 455.856 48.87 455.389 49.29C454.923 49.71 454.409 50.1067 453.849 50.48C453.289 50.8533 452.659 51.18 451.959 51.46C451.259 51.74 450.489 51.9733 449.649 52.16C448.856 52.3 447.993 52.3933 447.059 52.44C446.126 52.44 445.099 52.3933 443.979 52.3C445.379 53 446.639 53.98 447.759 55.24C448.879 56.5 450.163 58.18 451.609 60.28L461.269 74H453.569L443.139 59.02C441.366 56.4533 439.943 54.82 438.869 54.12C437.843 53.42 436.489 53.07 434.809 53.07H431.589V74H425.149ZM442.439 31.58H431.589V47.19H442.439C446.359 47.19 449.113 46.4667 450.699 45.02C452.333 43.5733 453.149 41.5433 453.149 38.93C453.149 36.2233 452.216 34.3333 450.349 33.26C448.483 32.14 445.846 31.58 442.439 31.58ZM476.205 58.32C476.392 61.7267 477.372 64.27 479.145 65.95C480.965 67.5833 483.182 68.4 485.795 68.4C488.548 68.4 490.812 67.7467 492.585 66.44C494.358 65.1333 495.245 63.01 495.245 60.07C495.245 59.37 495.175 58.7167 495.035 58.11C494.895 57.5033 494.685 56.9667 494.405 56.5C494.172 55.9867 493.868 55.5433 493.495 55.17C493.122 54.75 492.702 54.4 492.235 54.12C491.768 53.7933 491.255 53.49 490.695 53.21C490.182 52.93 489.622 52.6967 489.015 52.51C488.455 52.2767 487.848 52.0667 487.195 51.88C486.588 51.6933 485.958 51.5067 485.305 51.32C484.652 51.1333 483.975 50.9467 483.275 50.76C482.622 50.5267 481.968 50.3167 481.315 50.13C480.662 49.8967 480.008 49.6633 479.355 49.43C478.748 49.1967 478.142 48.9167 477.535 48.59C476.975 48.2633 476.415 47.9133 475.855 47.54C475.342 47.1667 474.852 46.77 474.385 46.35C473.918 45.8833 473.498 45.37 473.125 44.81C472.752 44.25 472.425 43.6433 472.145 42.99C471.912 42.29 471.725 41.5433 471.585 40.75C471.445 39.91 471.375 39 471.375 38.02C471.375 36.9467 471.468 35.9433 471.655 35.01C471.888 34.03 472.192 33.1433 472.565 32.35C472.985 31.5567 473.452 30.8333 473.965 30.18C474.525 29.5267 475.132 28.9433 475.785 28.43C476.485 27.9167 477.208 27.4733 477.955 27.1C478.748 26.68 479.565 26.3533 480.405 26.12C481.292 25.84 482.178 25.6533 483.065 25.56C483.998 25.42 484.932 25.35 485.865 25.35C486.892 25.35 487.895 25.42 488.875 25.56C489.855 25.7 490.788 25.9333 491.675 26.26C492.562 26.54 493.378 26.9133 494.125 27.38C494.918 27.8 495.642 28.3133 496.295 28.92C496.948 29.48 497.532 30.1333 498.045 30.88C498.605 31.6267 499.072 32.4433 499.445 33.33C499.818 34.17 500.098 35.1033 500.285 36.13C500.472 37.1567 500.565 38.2533 500.565 39.42H493.915C493.728 36.48 492.982 34.4033 491.675 33.19C490.368 31.93 488.315 31.3 485.515 31.3C483.228 31.3 481.385 31.8833 479.985 33.05C478.632 34.17 477.955 35.8033 477.955 37.95C477.955 38.5567 478.025 39.1167 478.165 39.63C478.305 40.0967 478.492 40.54 478.725 40.96C479.005 41.38 479.332 41.7533 479.705 42.08C480.078 42.4067 480.498 42.71 480.965 42.99C481.432 43.2233 481.922 43.4567 482.435 43.69C482.995 43.9233 483.578 44.1333 484.185 44.32C484.792 44.5067 485.398 44.6933 486.005 44.88C486.658 45.02 487.312 45.1833 487.965 45.37C488.665 45.5567 489.342 45.7433 489.995 45.93C490.648 46.1167 491.302 46.3267 491.955 46.56C492.655 46.7933 493.308 47.05 493.915 47.33C494.568 47.61 495.198 47.9367 495.805 48.31C496.412 48.6367 496.972 49.01 497.485 49.43C498.045 49.85 498.558 50.3167 499.025 50.83C499.492 51.3433 499.912 51.9267 500.285 52.58C500.658 53.1867 500.962 53.8867 501.195 54.68C501.475 55.4267 501.685 56.2433 501.825 57.13C501.965 58.0167 502.035 58.9967 502.035 60.07C502.035 61.0967 501.942 62.0533 501.755 62.94C501.615 63.8267 501.382 64.6667 501.055 65.46C500.728 66.2533 500.332 66.9767 499.865 67.63C499.445 68.2833 498.955 68.9133 498.395 69.52C497.835 70.08 497.228 70.5933 496.575 71.06C495.968 71.48 495.315 71.8767 494.615 72.25C493.915 72.6233 493.192 72.95 492.445 73.23C491.698 73.4633 490.952 73.6733 490.205 73.86C489.458 74 488.688 74.1167 487.895 74.21C487.148 74.3033 486.402 74.35 485.655 74.35C484.815 74.35 483.952 74.28 483.065 74.14C482.225 74 481.385 73.8133 480.545 73.58C479.705 73.3 478.888 72.9733 478.095 72.6C477.348 72.18 476.602 71.7133 475.855 71.2C475.155 70.6867 474.478 70.1033 473.825 69.45C473.218 68.75 472.658 68.0033 472.145 67.21C471.632 66.4167 471.188 65.5767 470.815 64.69C470.442 63.7567 470.162 62.7767 469.975 61.75C469.788 60.6767 469.695 59.5333 469.695 58.32H476.205ZM534.414 74.35C533.154 74.35 531.894 74.2567 530.634 74.07C529.374 73.8833 528.138 73.6267 526.924 73.3C525.711 72.9267 524.544 72.4833 523.424 71.97C522.304 71.4567 521.231 70.8733 520.204 70.22C519.178 69.52 518.198 68.75 517.264 67.91C516.331 67.0233 515.468 66.09 514.674 65.11C513.928 64.13 513.228 63.08 512.574 61.96C511.968 60.7933 511.454 59.58 511.034 58.32C510.614 57.06 510.288 55.73 510.054 54.33C509.821 52.8833 509.704 51.39 509.704 49.85C509.704 48.31 509.821 46.84 510.054 45.44C510.288 44.04 510.614 42.71 511.034 41.45C511.454 40.1433 511.968 38.93 512.574 37.81C513.228 36.6433 513.928 35.57 514.674 34.59C515.468 33.61 516.331 32.7 517.264 31.86C518.198 31.02 519.178 30.25 520.204 29.55C521.231 28.85 522.304 28.2433 523.424 27.73C524.544 27.2167 525.711 26.7967 526.924 26.47C528.138 26.0967 529.374 25.8167 530.634 25.63C531.894 25.4433 533.154 25.35 534.414 25.35C535.674 25.35 536.934 25.4433 538.194 25.63C539.454 25.8167 540.691 26.0967 541.904 26.47C543.118 26.7967 544.284 27.2167 545.404 27.73C546.524 28.2433 547.598 28.85 548.624 29.55C549.651 30.25 550.631 31.02 551.564 31.86C552.498 32.7 553.338 33.61 554.084 34.59C554.878 35.57 555.578 36.6433 556.184 37.81C556.838 38.93 557.374 40.1433 557.794 41.45C558.214 42.71 558.541 44.04 558.774 45.44C559.008 46.84 559.124 48.31 559.124 49.85C559.124 51.39 559.008 52.8833 558.774 54.33C558.541 55.73 558.214 57.06 557.794 58.32C557.374 59.58 556.838 60.7933 556.184 61.96C555.578 63.08 554.878 64.13 554.084 65.11C553.338 66.09 552.498 67.0233 551.564 67.91C550.631 68.75 549.651 69.52 548.624 70.22C547.598 70.8733 546.524 71.4567 545.404 71.97C544.284 72.4833 543.118 72.9267 541.904 73.3C540.691 73.6267 539.454 73.8833 538.194 74.07C536.934 74.2567 535.674 74.35 534.414 74.35ZM534.414 31.3C532.968 31.3 531.591 31.44 530.284 31.72C528.978 31.9533 527.764 32.3033 526.644 32.77C525.524 33.2367 524.498 33.7967 523.564 34.45C522.631 35.1033 521.791 35.85 521.044 36.69C520.298 37.53 519.644 38.44 519.084 39.42C518.524 40.4 518.034 41.45 517.614 42.57C517.241 43.6433 516.961 44.7867 516.774 46C516.588 47.2133 516.494 48.45 516.494 49.71C516.494 50.83 516.564 51.9267 516.704 53C516.844 54.0733 517.054 55.1233 517.334 56.15C517.661 57.13 518.058 58.0867 518.524 59.02C518.991 59.9533 519.504 60.84 520.064 61.68C520.671 62.4733 521.348 63.22 522.094 63.92C522.841 64.62 523.658 65.25 524.544 65.81C525.431 66.3233 526.388 66.79 527.414 67.21C528.441 67.5833 529.538 67.8867 530.704 68.12C531.871 68.3067 533.108 68.4 534.414 68.4C535.721 68.4 536.958 68.3067 538.124 68.12C539.291 67.8867 540.388 67.5833 541.414 67.21C542.441 66.79 543.398 66.3233 544.284 65.81C545.171 65.25 545.988 64.62 546.734 63.92C547.481 63.22 548.134 62.4733 548.694 61.68C549.301 60.84 549.838 59.9533 550.304 59.02C550.771 58.0867 551.144 57.13 551.424 56.15C551.751 55.1233 551.984 54.0733 552.124 53C552.264 51.9267 552.334 50.83 552.334 49.71C552.334 48.45 552.241 47.2133 552.054 46C551.868 44.7867 551.564 43.6433 551.144 42.57C550.771 41.45 550.304 40.4 549.744 39.42C549.184 38.44 548.531 37.53 547.784 36.69C547.038 35.85 546.198 35.1033 545.264 34.45C544.331 33.7967 543.304 33.2367 542.184 32.77C541.064 32.3033 539.851 31.9533 538.544 31.72C537.238 31.44 535.861 31.3 534.414 31.3ZM608.344 74.7L574.324 40.61V74H567.884V25L601.904 59.51V25.7H608.344V74.7Z" fill="black"/>
</svg>
