<svg width="76" height="76" viewBox="0 0 76 76" fill="none" xmlns="http://www.w3.org/2000/svg">
<path d="M0 5.4435C0 2.43675 2.4985 0 5.58125 0H70.4187C73.5015 0 76 2.43675 76 5.4435V70.5565C76 73.5632 73.5015 76 70.4187 76H5.58125C2.4985 76 0 73.5632 0 70.5565V5.4435ZM23.4792 63.6215V29.3028H12.0745V63.6215H23.4792ZM17.7793 24.6145C21.755 24.6145 24.2297 21.983 24.2297 18.6865C24.1585 15.3188 21.7598 12.7585 17.8552 12.7585C13.9508 12.7585 11.4 15.3235 11.4 18.6865C11.4 21.983 13.8748 24.6145 17.7033 24.6145H17.7793ZM41.0923 63.6215V44.4552C41.0923 43.4293 41.1683 42.4032 41.4722 41.6717C42.294 39.6245 44.1702 37.5013 47.3243 37.5013C51.452 37.5013 53.1003 40.6458 53.1003 45.2628V63.6215H64.505V43.9375C64.505 33.3925 58.881 28.4905 51.376 28.4905C45.3245 28.4905 42.6123 31.8155 41.0923 34.1572V34.276H41.0163C41.0415 34.2364 41.0668 34.1968 41.0923 34.1572V29.3028H29.6922C29.8347 32.5233 29.6922 63.6215 29.6922 63.6215H41.0923Z" fill="white"/>
</svg>
